<svg id="svg" version="1.1" xmlns="http://www.w3.org/2000/svg" xmlns:xlink="http://www.w3.org/1999/xlink" width="400" height="223.92964591529739" viewBox="0, 0, 400,223.92964591529739"><g id="svgg"><path id="path0" d="M155.167 121.669 C 154.479 121.747,153.767 121.847,153.583 121.892 C 153.400 121.936,152.650 122.098,151.917 122.251 C 151.183 122.404,150.508 122.586,150.417 122.654 C 150.325 122.722,149.987 122.880,149.667 123.006 C 148.825 123.335,146.833 124.654,146.833 124.883 C 146.833 125.002,148.052 124.819,148.167 124.683 C 148.278 124.550,150.211 124.423,152.167 124.420 C 156.277 124.412,160.176 125.462,161.958 127.056 C 162.165 127.240,162.333 127.337,162.333 127.270 C 162.333 127.087,164.035 128.962,164.412 129.561 C 164.593 129.848,164.837 130.182,164.954 130.304 C 165.071 130.425,165.167 130.604,165.167 130.702 C 165.167 130.800,165.317 131.188,165.502 131.565 C 166.244 133.084,166.657 136.856,166.269 138.583 C 165.923 140.124,165.793 140.591,165.495 141.365 C 164.906 142.889,162.716 146.721,162.178 147.167 C 162.123 147.212,161.865 147.512,161.604 147.833 C 160.466 149.235,159.480 150.305,158.017 151.727 C 155.805 153.877,154.214 155.333,154.077 155.333 C 154.034 155.333,153.859 155.465,153.688 155.625 C 153.516 155.785,153.128 156.104,152.825 156.333 C 152.522 156.563,152.194 156.825,152.096 156.917 C 151.673 157.310,149.772 158.672,148.839 159.250 C 148.262 159.607,146.744 160.748,146.628 160.911 C 146.560 161.006,146.504 161.018,146.503 160.939 C 146.501 160.859,146.243 160.990,145.928 161.230 C 145.613 161.470,145.301 161.667,145.235 161.667 C 145.169 161.667,144.869 161.854,144.569 162.083 C 144.268 162.313,143.978 162.500,143.924 162.500 C 143.870 162.500,143.444 162.762,142.977 163.083 C 142.511 163.404,142.063 163.667,141.981 163.667 C 141.900 163.667,141.833 163.742,141.833 163.833 C 141.833 164.080,142.526 164.036,143.354 163.735 C 143.755 163.590,144.308 163.433,144.583 163.386 C 144.858 163.339,145.121 163.249,145.167 163.186 C 145.212 163.124,145.662 162.971,146.167 162.846 C 146.671 162.722,147.646 162.400,148.333 162.132 C 149.021 161.863,149.658 161.628,149.750 161.609 C 149.842 161.590,150.010 161.515,150.125 161.444 C 150.240 161.372,150.333 161.365,150.333 161.427 C 150.333 161.490,150.427 161.466,150.542 161.375 C 150.656 161.285,151.050 161.117,151.417 161.003 C 151.783 160.890,152.314 160.665,152.597 160.504 C 152.879 160.343,153.392 160.118,153.735 160.005 C 154.543 159.738,158.385 157.827,158.519 157.626 C 158.575 157.541,158.673 157.485,158.736 157.501 C 158.938 157.553,162.281 155.512,163.794 154.415 C 169.856 150.014,173.405 145.576,174.854 140.583 C 175.299 139.050,175.427 134.504,175.030 134.371 C 174.921 134.335,174.866 134.249,174.907 134.182 C 175.030 133.983,174.546 132.323,174.089 131.376 C 173.857 130.895,173.667 130.426,173.667 130.334 C 173.667 130.242,173.601 130.167,173.520 130.167 C 173.440 130.167,173.281 129.942,173.167 129.667 C 173.053 129.392,172.894 129.167,172.813 129.167 C 172.733 129.167,172.665 129.073,172.664 128.958 C 172.656 128.454,169.854 125.831,168.168 124.751 C 164.282 122.260,159.637 121.159,155.167 121.669 M65.819 123.901 C 65.781 123.939,65.188 124.016,64.500 124.072 C 63.813 124.128,62.987 124.214,62.667 124.262 C 61.658 124.414,59.282 124.842,58.500 125.012 C 58.087 125.101,57.600 125.203,57.417 125.238 C 56.179 125.471,54.337 125.872,53.917 126.000 C 53.642 126.084,52.892 126.271,52.250 126.415 C 50.484 126.812,44.601 128.642,43.417 129.163 C 43.233 129.243,42.558 129.505,41.917 129.745 C 41.275 129.984,40.150 130.465,39.417 130.812 C 38.683 131.160,37.896 131.530,37.667 131.635 C 37.227 131.837,36.410 132.296,35.167 133.041 C 33.063 134.300,32.307 135.946,33.375 136.937 C 34.323 137.817,36.454 138.818,36.853 138.571 C 36.934 138.521,37.000 138.551,37.000 138.638 C 37.000 138.725,37.206 138.836,37.458 138.886 C 37.710 138.936,38.367 139.102,38.917 139.255 C 39.467 139.408,40.104 139.558,40.333 139.587 C 40.563 139.616,40.769 139.655,40.792 139.674 C 40.887 139.752,42.823 140.079,44.750 140.342 C 45.483 140.442,46.271 140.554,46.500 140.591 C 46.729 140.628,47.667 140.734,48.583 140.827 C 51.529 141.125,53.349 141.331,53.721 141.409 C 53.920 141.451,54.833 141.526,55.750 141.576 C 58.286 141.715,62.683 141.994,64.917 142.159 C 68.673 142.436,82.924 142.526,87.083 142.298 C 93.106 141.969,99.404 141.508,101.167 141.267 C 101.579 141.211,103.192 141.050,104.750 140.910 C 106.308 140.769,107.808 140.620,108.083 140.579 C 108.674 140.490,111.199 140.204,112.500 140.078 C 113.004 140.030,113.679 139.944,114.000 139.887 C 114.882 139.731,114.981 139.719,116.414 139.590 C 117.146 139.525,117.786 139.446,117.837 139.415 C 117.887 139.383,118.376 139.311,118.923 139.253 C 119.882 139.152,122.232 138.849,122.917 138.738 C 123.100 138.708,124.600 138.495,126.250 138.265 C 131.704 137.502,132.138 137.407,133.070 136.779 C 133.536 136.465,134.479 135.882,135.167 135.482 C 135.854 135.083,136.442 134.699,136.472 134.628 C 136.503 134.558,136.598 134.500,136.685 134.500 C 136.888 134.500,139.046 133.151,139.206 132.924 C 139.273 132.828,139.329 132.810,139.331 132.883 C 139.335 133.080,140.833 132.013,140.833 131.813 C 140.833 131.631,139.499 131.729,138.167 132.010 C 137.754 132.097,136.892 132.246,136.250 132.340 C 135.608 132.435,134.896 132.543,134.667 132.580 C 130.610 133.231,119.777 134.566,113.083 135.238 C 112.625 135.284,111.950 135.359,111.583 135.405 C 111.217 135.450,110.017 135.563,108.917 135.655 C 107.817 135.748,106.317 135.876,105.583 135.940 C 104.850 136.005,104.025 136.070,103.750 136.086 C 103.475 136.101,102.262 136.199,101.055 136.302 C 99.847 136.405,97.935 136.533,96.805 136.584 C 95.675 136.636,94.512 136.716,94.221 136.761 C 91.346 137.209,69.936 137.205,64.333 136.755 C 63.829 136.715,62.817 136.641,62.083 136.591 C 59.021 136.381,58.229 136.317,57.833 136.247 C 57.222 136.138,56.524 136.037,55.583 135.924 C 51.978 135.487,49.695 134.731,49.023 133.749 L 48.651 133.207 49.010 132.479 C 49.400 131.686,50.688 130.549,51.750 130.058 C 52.117 129.889,52.459 129.694,52.510 129.625 C 52.561 129.556,53.048 129.321,53.593 129.102 C 54.138 128.884,54.883 128.569,55.250 128.404 C 55.617 128.239,55.954 128.096,56.000 128.087 C 56.098 128.067,57.971 127.369,58.333 127.217 C 58.471 127.159,58.621 127.103,58.667 127.092 C 59.181 126.971,62.822 125.777,63.039 125.658 C 63.199 125.571,63.540 125.500,63.798 125.500 C 64.056 125.500,64.338 125.430,64.425 125.345 C 64.512 125.259,65.071 125.070,65.667 124.924 C 66.262 124.778,66.825 124.634,66.917 124.605 C 67.008 124.575,67.441 124.456,67.878 124.339 C 68.315 124.221,68.713 124.060,68.763 123.980 C 68.850 123.839,65.961 123.762,65.819 123.901 M59.667 149.058 C 58.887 149.243,58.212 149.438,58.167 149.489 C 58.121 149.541,58.008 149.584,57.917 149.586 C 56.308 149.609,50.627 153.428,51.088 154.174 C 51.142 154.262,51.123 154.333,51.046 154.333 C 50.923 154.333,50.619 154.936,50.375 155.667 C 49.697 157.696,50.675 159.609,52.972 160.746 C 54.311 161.409,55.243 161.805,55.756 161.927 C 56.028 161.993,56.325 162.101,56.417 162.169 C 56.508 162.237,57.108 162.417,57.750 162.568 C 58.392 162.720,59.104 162.893,59.333 162.953 C 59.813 163.078,59.706 163.056,62.000 163.502 C 62.962 163.689,64.006 163.873,64.320 163.911 C 64.830 163.973,65.820 164.128,66.500 164.252 C 66.637 164.277,67.313 164.349,68.000 164.412 C 68.688 164.476,69.550 164.591,69.917 164.668 C 71.026 164.902,81.792 165.570,86.250 165.681 C 93.131 165.854,99.579 165.725,103.583 165.337 C 104.592 165.239,105.792 165.123,106.250 165.078 C 107.373 164.970,108.676 164.809,109.083 164.729 C 109.883 164.572,110.337 164.504,111.750 164.335 C 112.575 164.236,113.389 164.112,113.558 164.061 C 113.728 164.009,114.028 163.948,114.225 163.925 C 114.663 163.873,116.109 163.583,118.000 163.168 C 118.779 162.997,120.017 162.730,120.750 162.574 C 122.253 162.255,123.713 161.884,124.333 161.663 C 124.563 161.582,124.975 161.478,125.250 161.432 C 125.525 161.386,126.313 161.192,127.000 161.000 C 127.688 160.808,128.325 160.631,128.417 160.607 C 129.407 160.343,130.680 159.938,131.083 159.759 C 131.760 159.459,132.390 159.260,132.542 159.300 C 132.610 159.318,132.667 159.258,132.667 159.167 C 132.667 159.075,132.529 159.000,132.361 159.000 C 132.193 159.000,131.999 158.944,131.931 158.875 C 131.862 158.806,131.756 158.744,131.694 158.736 C 131.531 158.714,131.008 158.502,130.214 158.135 C 129.828 157.956,129.453 157.801,129.381 157.792 C 129.309 157.782,129.151 157.675,129.030 157.554 C 128.909 157.432,128.702 157.333,128.571 157.333 C 128.440 157.333,128.333 157.270,128.333 157.193 C 128.333 157.116,128.052 156.909,127.708 156.735 C 127.365 156.560,126.985 156.285,126.866 156.125 C 126.746 155.965,126.567 155.833,126.468 155.833 C 126.369 155.833,126.125 155.665,125.925 155.458 C 124.603 154.094,123.904 153.860,122.021 154.153 C 121.322 154.261,120.487 154.384,120.167 154.426 C 119.846 154.468,119.246 154.575,118.833 154.664 C 118.421 154.753,117.783 154.863,117.417 154.910 C 114.049 155.336,112.782 155.512,112.690 155.569 C 112.631 155.605,111.983 155.688,111.250 155.753 C 110.517 155.818,109.879 155.893,109.833 155.919 C 109.787 155.945,109.037 156.020,108.167 156.085 C 107.296 156.149,106.433 156.236,106.250 156.278 C 106.067 156.320,104.642 156.458,103.083 156.587 C 101.525 156.715,99.800 156.861,99.250 156.912 C 98.700 156.962,97.575 157.039,96.750 157.082 C 95.925 157.124,94.987 157.190,94.667 157.228 C 90.964 157.661,70.030 157.680,69.336 157.251 C 69.275 157.214,68.782 157.140,68.238 157.086 C 62.207 156.486,58.533 154.614,58.898 152.327 C 59.004 151.669,59.528 150.653,60.083 150.032 C 60.267 149.827,60.590 149.465,60.802 149.229 C 61.306 148.665,61.312 148.665,59.667 149.058 M64.199 172.671 C 60.581 173.618,57.137 176.165,56.669 178.237 C 56.444 179.237,56.792 181.333,57.184 181.333 C 57.271 181.333,57.410 181.513,57.494 181.734 C 57.577 181.954,57.932 182.343,58.281 182.599 C 58.631 182.855,58.992 183.145,59.083 183.243 C 59.315 183.491,60.140 184.009,60.271 183.988 C 60.331 183.979,60.425 184.045,60.481 184.136 C 60.594 184.316,62.505 185.219,63.167 185.404 C 63.396 185.468,63.733 185.586,63.917 185.665 C 64.996 186.132,67.246 186.776,68.851 187.077 C 69.457 187.191,70.028 187.331,70.120 187.388 C 70.212 187.445,70.541 187.528,70.852 187.573 C 72.187 187.766,74.351 188.158,74.462 188.226 C 74.529 188.267,75.183 188.354,75.917 188.420 C 76.650 188.486,77.362 188.556,77.500 188.577 C 77.637 188.597,78.425 188.670,79.250 188.738 C 80.075 188.806,80.938 188.893,81.167 188.933 C 81.396 188.972,82.296 189.045,83.167 189.094 C 84.037 189.144,84.938 189.218,85.167 189.259 C 86.076 189.422,95.395 189.473,97.667 189.328 C 100.841 189.125,100.931 189.116,105.083 188.564 C 107.167 188.288,106.951 188.323,109.500 187.845 C 110.554 187.647,111.567 187.458,111.750 187.425 C 112.790 187.239,115.536 186.600,117.167 186.165 C 118.467 185.819,118.549 185.798,119.917 185.482 C 120.375 185.376,120.870 185.228,121.016 185.153 C 121.162 185.077,121.462 184.983,121.683 184.942 C 122.483 184.795,124.485 184.189,127.959 183.041 C 129.045 182.683,129.864 182.104,129.021 182.292 C 128.918 182.315,128.833 182.266,128.833 182.185 C 128.833 182.103,128.639 181.987,128.401 181.928 C 127.446 181.688,122.528 179.164,120.255 177.748 C 119.595 177.337,118.968 177.000,118.861 177.000 C 118.754 177.000,118.667 176.935,118.667 176.856 C 118.667 176.594,117.198 176.134,116.795 176.269 C 116.587 176.340,116.342 176.404,116.250 176.414 C 116.158 176.423,115.746 176.529,115.333 176.650 C 114.921 176.771,114.396 176.899,114.167 176.935 C 113.327 177.066,112.740 177.170,112.333 177.259 C 111.648 177.408,108.651 177.838,107.667 177.928 C 107.162 177.974,106.263 178.084,105.667 178.172 C 104.632 178.326,101.292 178.582,98.083 178.755 C 97.258 178.799,95.758 178.881,94.750 178.938 C 91.961 179.094,82.877 179.100,78.667 178.949 C 73.307 178.756,72.453 178.697,70.761 178.403 C 69.930 178.259,69.119 178.142,68.958 178.143 C 68.798 178.145,68.667 178.085,68.667 178.010 C 68.667 177.936,68.460 177.834,68.208 177.783 C 67.956 177.732,67.525 177.598,67.250 177.485 C 66.975 177.372,66.694 177.292,66.625 177.306 C 66.556 177.321,66.500 177.275,66.500 177.205 C 66.500 177.134,66.246 176.939,65.936 176.772 C 64.853 176.189,64.522 174.874,65.162 173.702 C 66.019 172.137,66.062 172.183,64.199 172.671 M43.167 188.336 C 40.555 188.593,39.737 188.683,39.333 188.760 C 39.104 188.804,38.692 188.875,38.417 188.918 C 38.142 188.960,37.617 189.042,37.250 189.098 C 36.609 189.198,34.440 189.601,33.750 189.749 C 32.071 190.110,30.342 190.527,30.000 190.653 C 29.771 190.737,29.133 190.936,28.583 191.094 C 26.821 191.599,24.934 192.211,24.333 192.472 C 24.012 192.612,23.675 192.743,23.583 192.764 C 23.138 192.868,20.378 194.276,20.167 194.508 C 20.121 194.558,19.746 194.795,19.333 195.034 C 16.683 196.568,15.093 199.470,15.835 201.420 C 16.027 201.925,17.294 203.167,17.618 203.167 C 17.736 203.167,17.833 203.234,17.833 203.315 C 17.833 203.397,18.152 203.591,18.541 203.747 C 18.930 203.903,19.287 204.086,19.333 204.154 C 19.440 204.311,23.252 205.618,23.917 205.725 C 24.192 205.770,24.417 205.818,24.417 205.832 C 24.417 205.880,24.892 205.993,26.417 206.307 C 27.242 206.477,28.067 206.660,28.250 206.715 C 28.433 206.769,28.883 206.860,29.250 206.917 C 31.119 207.207,32.795 207.488,33.167 207.575 C 33.652 207.688,38.694 208.326,39.917 208.429 C 40.375 208.468,40.975 208.531,41.250 208.569 C 41.525 208.607,42.875 208.721,44.250 208.823 C 45.625 208.925,47.350 209.080,48.083 209.168 C 48.817 209.256,50.317 209.369,51.417 209.419 C 52.517 209.469,53.829 209.543,54.333 209.583 C 54.837 209.623,56.450 209.702,57.917 209.758 C 59.383 209.814,61.221 209.892,62.000 209.931 C 70.126 210.339,92.864 210.342,97.667 209.935 C 98.171 209.892,100.271 209.810,102.333 209.752 C 104.396 209.694,106.383 209.617,106.750 209.581 C 107.117 209.544,108.542 209.463,109.917 209.400 C 111.292 209.337,112.642 209.267,112.917 209.246 C 113.192 209.224,114.467 209.122,115.750 209.019 C 117.033 208.916,118.646 208.795,119.333 208.751 C 121.040 208.639,122.246 208.518,124.500 208.233 C 125.554 208.100,126.829 207.952,127.333 207.904 C 127.837 207.856,128.475 207.774,128.750 207.721 C 129.025 207.668,129.450 207.635,129.693 207.647 C 129.937 207.660,130.321 207.600,130.546 207.514 C 130.771 207.429,131.471 207.307,132.102 207.244 C 132.734 207.181,133.813 207.033,134.500 206.915 C 137.132 206.462,139.538 206.010,139.858 205.909 C 140.041 205.851,141.029 205.628,142.054 205.413 C 143.078 205.198,144.629 204.832,145.500 204.600 C 146.371 204.367,147.533 204.058,148.083 203.912 C 148.633 203.767,149.196 203.603,149.333 203.549 C 149.471 203.494,149.658 203.432,149.750 203.411 C 150.631 203.207,152.846 202.448,152.922 202.325 C 152.976 202.238,153.184 202.166,153.385 202.166 C 153.586 202.166,154.119 201.978,154.570 201.749 C 155.021 201.521,155.465 201.333,155.557 201.333 C 155.868 201.333,158.000 200.285,158.000 200.132 C 158.000 200.049,158.076 200.027,158.168 200.084 C 158.260 200.141,158.541 200.048,158.793 199.877 C 159.044 199.707,159.438 199.476,159.667 199.364 C 160.064 199.169,160.606 198.846,161.851 198.060 C 166.124 195.363,166.573 192.133,162.937 190.246 C 162.498 190.019,162.467 190.022,162.544 190.291 C 163.229 192.689,163.224 192.652,163.020 193.333 C 162.725 194.316,160.850 195.989,159.728 196.270 C 159.511 196.325,159.333 196.436,159.333 196.518 C 159.333 196.600,159.252 196.667,159.153 196.667 C 159.053 196.667,158.430 196.884,157.768 197.149 C 157.106 197.414,156.081 197.762,155.490 197.921 C 154.900 198.081,153.892 198.356,153.250 198.532 C 152.608 198.708,151.821 198.889,151.500 198.935 C 151.179 198.981,150.729 199.082,150.500 199.162 C 150.050 199.317,149.262 199.480,148.333 199.610 C 148.012 199.655,147.262 199.804,146.667 199.942 C 146.071 200.079,145.358 200.220,145.083 200.255 C 144.321 200.351,143.149 200.514,142.500 200.613 C 141.412 200.780,141.252 200.802,139.167 201.070 C 138.021 201.217,136.746 201.387,136.333 201.448 C 135.921 201.509,135.358 201.577,135.083 201.600 C 134.808 201.622,134.208 201.683,133.750 201.733 C 132.870 201.831,127.492 202.341,126.500 202.421 C 124.259 202.601,118.447 203.009,117.000 203.088 C 116.037 203.140,114.942 203.214,114.566 203.252 C 113.567 203.353,103.648 203.819,100.417 203.917 C 99.408 203.948,96.633 204.035,94.250 204.112 C 85.623 204.387,68.288 204.274,65.417 203.923 C 65.050 203.878,63.962 203.802,63.000 203.755 C 61.247 203.668,60.355 203.600,58.333 203.398 C 57.737 203.339,56.987 203.270,56.667 203.246 C 55.560 203.163,54.079 203.019,52.583 202.850 C 51.758 202.756,50.633 202.637,50.083 202.584 C 49.533 202.531,48.333 202.380,47.417 202.247 C 46.500 202.114,45.188 201.928,44.500 201.832 C 43.045 201.629,42.411 201.532,41.833 201.425 C 41.604 201.382,40.747 201.233,39.929 201.093 C 39.111 200.954,38.211 200.770,37.929 200.686 C 37.647 200.601,36.704 200.370,35.833 200.173 C 28.585 198.533,27.284 195.376,32.833 192.894 C 33.154 192.750,33.813 192.453,34.297 192.233 C 34.781 192.013,35.207 191.833,35.244 191.833 C 35.281 191.833,35.485 191.767,35.697 191.687 C 35.910 191.606,36.158 191.524,36.250 191.504 C 36.342 191.484,36.558 191.391,36.731 191.299 C 36.904 191.206,37.279 191.094,37.565 191.049 C 37.850 191.004,38.393 190.862,38.770 190.734 C 39.148 190.606,40.161 190.351,41.020 190.168 C 41.880 189.984,43.108 189.718,43.750 189.577 C 44.392 189.435,45.104 189.291,45.333 189.256 C 46.279 189.112,48.779 188.653,49.167 188.552 C 50.363 188.240,45.812 188.076,43.167 188.336 M174.417 201.333 C 174.071 201.608,173.737 201.833,173.675 201.833 C 173.613 201.833,173.417 201.969,173.240 202.134 C 172.838 202.508,170.282 204.180,169.497 204.582 C 169.178 204.746,168.879 204.930,168.833 204.991 C 168.787 205.052,168.075 205.429,167.250 205.828 C 166.425 206.228,165.629 206.657,165.481 206.783 C 165.333 206.908,165.066 207.038,164.888 207.073 C 164.709 207.107,164.171 207.325,163.691 207.556 C 163.212 207.787,162.598 208.025,162.326 208.085 C 162.055 208.144,161.833 208.253,161.833 208.326 C 161.833 208.399,161.627 208.500,161.375 208.550 C 161.123 208.601,160.542 208.810,160.083 209.015 C 159.625 209.220,159.202 209.378,159.143 209.367 C 159.084 209.355,158.259 209.611,157.310 209.937 C 156.360 210.262,155.433 210.558,155.250 210.595 C 155.067 210.632,154.729 210.735,154.500 210.823 C 154.068 210.991,152.769 211.353,152.333 211.429 C 152.196 211.453,151.671 211.594,151.167 211.743 C 150.662 211.893,150.063 212.052,149.833 212.096 C 149.604 212.141,149.042 212.281,148.583 212.407 C 147.661 212.661,146.187 212.986,145.417 213.107 C 145.142 213.149,144.204 213.325,143.333 213.497 C 141.191 213.919,138.083 214.466,137.167 214.582 C 136.754 214.634,136.192 214.723,135.917 214.780 C 135.642 214.836,135.192 214.904,134.917 214.930 C 133.812 215.036,128.505 215.663,127.333 215.827 C 125.986 216.014,125.203 216.091,123.000 216.249 C 122.221 216.305,121.246 216.391,120.833 216.439 C 120.421 216.488,119.633 216.553,119.083 216.584 C 118.533 216.616,116.808 216.721,115.250 216.818 C 108.332 217.250,88.576 217.422,80.917 217.117 C 79.175 217.047,76.775 216.955,75.583 216.911 C 74.392 216.868,72.948 216.789,72.374 216.736 C 71.801 216.683,70.676 216.613,69.874 216.580 C 68.010 216.503,65.551 216.359,64.167 216.247 C 63.571 216.199,62.071 216.082,60.833 215.987 C 59.596 215.893,58.283 215.785,57.917 215.747 C 57.550 215.710,56.800 215.642,56.250 215.596 C 55.700 215.550,53.900 215.389,52.250 215.237 C 50.600 215.086,49.025 214.944,48.750 214.922 C 48.475 214.899,47.658 214.823,46.935 214.752 C 45.573 214.618,45.314 214.802,46.308 215.196 C 47.138 215.525,50.667 216.504,50.667 216.404 C 50.667 216.370,50.873 216.421,51.125 216.519 C 51.377 216.616,51.696 216.720,51.833 216.749 C 51.971 216.777,52.871 216.993,53.833 217.227 C 54.796 217.462,55.771 217.690,56.000 217.734 C 56.229 217.779,57.011 217.933,57.737 218.077 C 58.463 218.221,59.250 218.374,59.487 218.418 C 59.723 218.461,60.104 218.538,60.333 218.590 C 60.563 218.641,61.125 218.713,61.583 218.750 C 62.042 218.787,62.435 218.830,62.458 218.846 C 62.507 218.880,62.546 218.889,63.417 219.071 C 64.111 219.216,64.521 219.282,65.500 219.409 C 69.866 219.973,72.813 220.326,73.833 220.406 C 74.521 220.460,75.983 220.583,77.083 220.680 C 87.297 221.582,105.081 221.653,114.583 220.830 C 115.592 220.742,117.654 220.591,119.167 220.493 C 120.679 220.395,122.217 220.274,122.583 220.225 C 122.950 220.175,123.587 220.114,124.000 220.088 C 124.412 220.062,125.125 219.994,125.583 219.936 C 126.042 219.879,127.167 219.755,128.083 219.662 C 131.448 219.321,131.553 219.308,134.917 218.834 C 136.292 218.640,137.642 218.456,137.917 218.425 C 138.868 218.318,142.920 217.667,143.667 217.501 C 144.537 217.309,146.083 216.994,146.625 216.899 C 147.741 216.703,148.129 216.620,151.250 215.907 C 152.533 215.614,154.687 215.002,155.208 214.781 C 155.552 214.636,155.833 214.553,155.833 214.596 C 155.833 214.640,156.058 214.559,156.332 214.418 C 156.606 214.276,156.849 214.170,156.873 214.183 C 157.050 214.275,160.419 213.030,162.000 212.288 C 162.412 212.094,162.787 211.930,162.833 211.923 C 163.604 211.807,169.295 208.446,170.462 207.417 C 173.117 205.077,175.445 202.086,175.076 201.489 C 175.031 201.416,175.071 201.309,175.164 201.252 C 175.370 201.124,175.388 200.833,175.190 200.833 C 175.111 200.833,174.763 201.058,174.417 201.333 " stroke="none" fill="#0c8cc4" fill-rule="evenodd"></path><path id="path1" d="M117.726 5.919 C 117.673 6.058,117.787 7.287,117.981 8.649 C 118.540 12.581,118.349 17.401,117.499 20.833 C 117.023 22.754,116.620 24.149,116.409 24.609 C 116.275 24.897,116.167 25.200,116.167 25.281 C 116.167 25.818,113.611 31.230,113.066 31.846 C 112.938 31.991,112.833 32.161,112.833 32.224 C 112.833 32.320,111.864 33.868,111.461 34.417 C 108.760 38.087,105.629 41.304,101.490 44.661 C 100.533 45.437,99.068 46.637,98.235 47.328 C 97.402 48.018,96.440 48.808,96.099 49.083 C 95.757 49.358,95.307 49.733,95.098 49.917 C 94.890 50.100,94.430 50.475,94.075 50.750 C 93.721 51.025,92.940 51.662,92.340 52.167 C 91.741 52.671,91.109 53.196,90.937 53.333 C 90.764 53.471,90.453 53.733,90.245 53.917 C 90.037 54.100,89.467 54.587,88.979 55.000 C 88.491 55.413,87.573 56.200,86.939 56.750 C 86.305 57.300,85.493 57.989,85.134 58.280 C 81.533 61.207,75.170 67.459,72.952 70.250 C 72.806 70.433,72.357 70.996,71.954 71.500 C 71.550 72.004,71.002 72.747,70.735 73.152 C 70.468 73.556,70.121 74.081,69.963 74.318 C 69.484 75.038,68.774 76.373,68.448 77.165 C 68.279 77.577,68.076 77.991,67.998 78.086 C 67.828 78.290,67.203 80.410,66.967 81.583 C 66.161 85.584,68.837 92.670,73.236 98.185 C 73.427 98.424,73.696 98.790,73.833 98.998 C 73.971 99.205,74.518 99.947,75.049 100.646 C 75.579 101.345,76.142 102.093,76.299 102.309 C 76.556 102.663,77.165 103.428,78.807 105.462 C 79.114 105.841,79.526 106.334,79.724 106.557 C 79.922 106.780,80.383 107.325,80.750 107.769 C 83.147 110.672,88.700 116.695,92.449 120.458 C 94.786 122.804,94.940 122.928,94.626 122.208 C 94.364 121.606,92.726 119.201,92.328 118.833 C 92.189 118.704,89.349 114.347,88.417 112.832 C 87.958 112.087,87.505 111.389,87.410 111.280 C 87.239 111.087,85.982 108.912,85.850 108.583 C 85.813 108.492,85.735 108.379,85.675 108.333 C 85.400 108.122,81.671 100.938,81.177 99.667 C 81.052 99.346,80.851 98.858,80.731 98.583 C 78.126 92.647,77.580 87.637,79.084 83.465 C 79.833 81.390,83.144 75.583,84.007 74.833 C 84.060 74.787,84.211 74.592,84.343 74.399 C 84.570 74.067,85.791 72.602,86.333 72.010 C 86.471 71.860,86.838 71.440,87.150 71.077 C 88.704 69.266,90.739 67.123,93.935 63.931 C 97.123 60.746,103.693 54.372,103.999 54.167 C 104.236 54.008,109.731 48.743,111.305 47.167 C 112.605 45.865,113.633 44.656,115.628 42.083 C 116.902 40.439,119.357 35.777,120.059 33.667 C 120.318 32.887,120.599 32.100,120.683 31.917 C 123.318 26.187,122.076 10.689,118.629 6.292 C 118.099 5.616,117.877 5.525,117.726 5.919 M142.000 49.355 C 140.381 49.791,135.975 51.198,135.250 51.510 C 135.067 51.589,134.504 51.781,134.000 51.936 C 133.496 52.091,133.008 52.271,132.917 52.337 C 132.825 52.402,132.348 52.587,131.856 52.748 C 131.365 52.908,130.765 53.142,130.523 53.269 C 130.281 53.395,130.029 53.498,129.963 53.499 C 129.897 53.500,129.433 53.688,128.932 53.917 C 128.431 54.146,127.968 54.333,127.902 54.333 C 127.836 54.333,127.400 54.512,126.933 54.730 C 126.466 54.949,125.558 55.356,124.917 55.636 C 123.377 56.307,119.053 58.486,117.583 59.331 C 116.942 59.700,116.098 60.167,115.708 60.368 C 115.319 60.569,115.000 60.793,115.000 60.867 C 115.000 60.940,114.916 61.000,114.813 61.000 C 114.641 61.000,110.838 63.469,110.083 64.071 C 109.900 64.218,109.300 64.681,108.750 65.102 C 94.260 76.181,92.027 89.754,102.370 103.874 C 102.487 104.034,102.755 104.409,102.965 104.707 C 103.176 105.006,103.626 105.636,103.965 106.109 C 104.305 106.581,104.676 107.106,104.789 107.275 C 104.902 107.445,105.390 108.146,105.872 108.833 C 109.833 114.474,110.522 118.056,108.471 122.333 C 107.772 123.792,106.044 126.742,105.430 127.526 C 104.434 128.799,103.305 130.527,103.405 130.627 C 103.525 130.748,104.846 130.056,105.855 129.344 C 106.188 129.109,106.626 128.804,106.828 128.667 C 107.432 128.256,110.054 126.270,110.348 126.000 C 110.498 125.862,111.062 125.375,111.602 124.918 C 118.303 119.234,121.217 112.878,119.703 107.250 C 118.700 103.523,117.331 100.741,113.920 95.500 C 110.859 90.796,110.602 90.379,109.845 88.874 C 106.914 83.049,108.075 78.180,113.985 71.511 C 115.706 69.569,118.691 66.692,120.257 65.467 C 120.526 65.256,120.865 64.971,121.010 64.833 C 121.155 64.696,121.557 64.358,121.904 64.083 C 122.250 63.808,122.620 63.508,122.725 63.417 C 122.831 63.325,123.367 62.913,123.917 62.500 C 124.467 62.088,124.954 61.711,125.000 61.662 C 125.142 61.512,127.496 59.788,129.333 58.489 C 132.017 56.591,138.174 52.567,142.208 50.073 C 143.279 49.410,143.172 49.040,142.000 49.355 M209.033 86.033 C 208.879 86.188,208.833 94.144,208.833 120.829 C 208.833 143.439,208.774 155.915,208.662 156.838 C 208.351 159.412,207.559 162.299,206.574 164.452 C 206.350 164.942,206.167 165.399,206.167 165.468 C 206.167 165.603,204.587 168.013,204.068 168.670 C 202.804 170.269,200.480 172.109,198.542 173.045 C 197.115 173.733,197.019 173.829,197.387 174.196 C 197.508 174.318,198.527 175.504,199.651 176.833 C 202.538 180.247,202.460 180.167,202.898 180.167 C 203.909 180.167,207.221 178.660,209.417 177.202 C 215.828 172.943,219.612 165.870,220.744 156.026 C 221.084 153.074,221.137 86.370,220.800 86.033 C 220.652 85.886,219.115 85.833,214.917 85.833 C 210.719 85.833,209.181 85.886,209.033 86.033 M248.871 104.509 C 243.444 104.993,236.253 106.807,232.707 108.586 C 231.846 109.019,231.775 109.315,232.179 110.789 C 232.374 111.501,232.681 112.683,232.861 113.417 C 233.457 115.840,233.674 116.092,234.784 115.646 C 235.040 115.543,235.400 115.398,235.583 115.325 C 237.709 114.470,241.119 113.664,246.103 112.836 C 250.925 112.035,256.083 113.026,258.274 115.175 C 259.087 115.972,259.319 116.339,260.061 118.000 C 260.909 119.898,261.538 126.439,260.930 127.046 C 260.755 127.222,259.962 127.315,257.888 127.404 C 250.896 127.705,244.267 128.587,242.250 129.485 C 242.067 129.566,241.654 129.727,241.333 129.841 C 236.635 131.514,231.306 135.927,230.403 138.892 C 230.343 139.089,230.160 139.550,229.997 139.917 C 228.303 143.723,228.823 150.730,231.111 154.917 C 235.420 162.803,249.172 164.141,258.859 157.618 C 260.432 156.559,260.787 156.291,261.725 155.458 C 262.009 155.206,262.293 155.000,262.357 155.000 C 262.500 155.000,262.908 156.797,263.170 158.583 C 263.447 160.470,263.076 160.333,267.918 160.333 L 272.128 160.333 272.228 159.958 C 272.404 159.304,272.344 120.363,272.165 118.803 C 270.957 108.266,262.808 103.265,248.871 104.509 M351.651 104.505 C 347.220 104.876,340.364 106.435,337.417 107.741 C 337.142 107.863,336.729 108.018,336.500 108.086 C 334.670 108.627,334.422 109.169,335.015 111.333 C 335.203 112.021,335.549 113.315,335.783 114.208 C 336.273 116.082,336.370 116.126,338.250 115.332 C 344.487 112.694,355.361 111.885,359.083 113.781 C 362.265 115.401,363.833 119.099,363.833 124.980 C 363.833 127.478,364.270 127.247,359.083 127.494 C 356.883 127.599,354.558 127.756,353.917 127.843 C 353.275 127.930,351.803 128.113,350.644 128.249 C 346.441 128.743,339.633 131.270,338.333 132.819 C 338.287 132.874,337.956 133.138,337.596 133.407 C 329.364 139.549,329.744 154.668,338.250 159.406 C 341.877 161.426,348.353 162.397,352.250 161.505 C 352.617 161.421,353.404 161.240,354.000 161.102 C 357.240 160.356,360.823 158.490,363.783 156.006 C 365.340 154.700,365.250 154.616,365.746 157.833 C 365.895 158.796,366.087 159.753,366.173 159.961 L 366.329 160.339 370.623 160.294 L 374.917 160.250 374.962 139.750 C 375.009 118.517,374.997 118.087,374.311 115.750 C 371.798 107.197,364.246 103.449,351.651 104.505 M384.150 105.604 C 384.026 105.753,383.736 106.324,383.504 106.873 C 382.996 108.080,382.845 108.103,382.482 107.034 C 382.002 105.623,381.896 105.500,381.161 105.500 L 380.500 105.500 380.500 107.649 C 380.500 109.405,380.546 109.815,380.750 109.894 C 381.290 110.101,381.500 109.825,381.500 108.909 C 381.500 107.696,381.692 107.674,382.154 108.835 C 382.687 110.178,383.206 110.335,383.649 109.289 C 383.775 108.993,383.999 108.487,384.147 108.167 L 384.417 107.583 384.460 108.167 C 384.565 109.578,384.661 109.833,385.091 109.833 L 385.500 109.833 385.500 107.686 C 385.500 105.600,385.489 105.536,385.125 105.438 C 384.550 105.284,384.393 105.311,384.150 105.604 M279.000 105.997 C 279.000 106.270,279.108 106.776,279.239 107.122 C 279.371 107.467,279.789 108.763,280.168 110.000 C 280.548 111.237,280.959 112.550,281.081 112.917 C 281.204 113.283,281.543 114.371,281.833 115.333 C 282.124 116.296,282.461 117.383,282.582 117.750 C 282.704 118.117,283.079 119.317,283.417 120.417 C 284.083 122.585,284.902 125.188,285.252 126.250 C 285.372 126.617,285.710 127.704,286.001 128.667 C 286.292 129.629,286.667 130.829,286.834 131.333 C 287.001 131.837,287.376 133.037,287.668 134.000 C 288.273 135.994,289.092 138.600,289.423 139.583 C 289.547 139.950,289.884 141.037,290.172 142.000 C 290.460 142.962,290.832 144.162,290.999 144.667 C 291.166 145.171,291.541 146.371,291.832 147.333 C 292.124 148.296,292.462 149.383,292.585 149.750 C 292.708 150.117,293.121 151.429,293.503 152.667 C 293.885 153.904,294.297 155.217,294.418 155.583 C 294.539 155.950,294.876 157.037,295.167 158.000 C 295.458 158.962,295.762 159.919,295.844 160.125 L 295.993 160.500 302.705 160.498 C 307.691 160.496,309.524 160.442,309.833 160.289 C 310.218 160.099,311.625 157.557,312.531 155.414 C 312.686 155.049,313.079 154.138,313.406 153.390 C 313.733 152.641,314.000 151.978,314.000 151.915 C 314.000 151.852,314.109 151.564,314.242 151.275 C 315.031 149.560,317.636 142.155,318.940 137.917 C 320.684 132.252,322.751 124.607,324.079 118.917 C 324.292 118.000,324.668 116.388,324.914 115.333 C 325.781 111.615,326.833 106.388,326.833 105.803 C 326.833 105.509,326.572 105.498,320.958 105.540 L 315.083 105.583 314.964 106.167 C 314.898 106.487,314.731 107.800,314.593 109.083 C 314.115 113.504,312.957 119.328,311.380 125.250 C 311.063 126.442,310.667 127.942,310.501 128.583 C 310.336 129.225,310.001 130.425,309.757 131.250 C 309.513 132.075,309.140 133.350,308.927 134.083 C 308.714 134.817,308.339 136.054,308.093 136.833 C 307.848 137.612,307.539 138.625,307.406 139.083 C 307.008 140.465,304.416 148.065,304.256 148.325 C 304.152 148.491,303.886 147.689,303.399 145.742 C 302.629 142.668,302.319 141.493,301.837 139.833 C 301.664 139.237,301.248 137.775,300.913 136.583 C 300.578 135.392,300.203 134.117,300.080 133.750 C 299.956 133.383,299.621 132.258,299.333 131.250 C 299.046 130.242,298.710 129.117,298.587 128.750 C 298.464 128.383,298.125 127.296,297.834 126.333 C 297.212 124.276,296.589 122.281,296.169 121.000 C 296.003 120.496,295.593 119.183,295.257 118.083 C 294.921 116.983,294.506 115.671,294.335 115.167 C 294.163 114.662,293.599 112.900,293.081 111.250 C 291.708 106.878,291.318 105.837,290.986 105.659 C 290.813 105.567,288.237 105.500,284.844 105.500 L 279.000 105.500 279.000 105.997 M376.230 105.742 C 376.087 106.115,376.306 106.333,376.825 106.333 C 377.432 106.333,377.500 106.535,377.500 108.329 C 377.500 109.481,377.554 109.818,377.750 109.894 C 378.366 110.130,378.487 109.854,378.536 108.109 L 378.583 106.417 379.167 106.333 C 379.613 106.270,379.762 106.162,379.803 105.875 C 379.871 105.401,376.410 105.272,376.230 105.742 M260.967 134.867 C 261.251 135.151,261.252 146.631,260.967 147.256 C 260.857 147.497,260.239 148.098,259.592 148.593 C 258.946 149.087,258.342 149.550,258.250 149.622 C 256.672 150.859,253.699 152.235,251.327 152.825 C 245.618 154.246,240.808 150.890,240.539 145.300 C 240.284 139.982,242.687 136.988,248.333 135.591 C 251.103 134.906,260.469 134.369,260.967 134.867 M363.652 134.899 C 363.793 135.069,363.832 136.797,363.798 141.254 L 363.750 147.375 362.917 148.114 C 357.939 152.529,351.710 154.205,347.583 152.240 C 341.670 149.423,341.678 139.666,347.595 136.861 C 348.230 136.560,348.869 136.250,349.015 136.172 C 349.768 135.770,352.979 135.159,355.173 135.002 C 360.594 134.612,363.386 134.579,363.652 134.899 " stroke="none" fill="#ec2324" fill-rule="evenodd"></path><path id="path2" d="" stroke="none" fill="#0c8ccc" fill-rule="evenodd"></path><path id="path3" d="" stroke="none" fill="#b4547c" fill-rule="evenodd"></path><path id="path4" d="" stroke="none" fill="#f05424" fill-rule="evenodd"></path><path id="path5" d="" stroke="none" fill="#f05424" fill-rule="evenodd"></path><path id="path6" d="" stroke="none" fill="#f05424" fill-rule="evenodd"></path><path id="path7" d="" stroke="none" fill="#f05424" fill-rule="evenodd"></path><path id="path8" d="" stroke="none" fill="#f05424" fill-rule="evenodd"></path></g></svg>